<svg width="191" height="37" viewBox="0 0 191 37" fill="none" xmlns="http://www.w3.org/2000/svg">
<g opacity="0.3" clip-path="url(#clip0_0_38)">
<g clip-path="url(#clip1_0_38)">
<path d="M12.743 19.0395V15.2129C12.743 13.6236 14.0317 12.3349 15.621 12.3349H34.5323C36.1217 12.3349 37.4104 11.0462 37.4104 9.45683V2.87806C37.4104 1.28872 36.1217 0 34.5323 0H15.621C14.0317 0 12.743 1.28872 12.743 2.87806V9.45683C12.743 11.0462 11.4542 12.3349 9.86489 12.3349H3.28846C1.69912 12.3349 0.4104 13.6236 0.4104 15.2129V21.7917C0.4104 23.3811 1.69912 24.6698 3.28846 24.6698H9.86723C11.4566 24.6698 12.7453 25.9585 12.7453 27.5478V34.1266C12.7453 35.7159 14.034 37.0047 15.6233 37.0047H34.5347C36.124 37.0047 37.4127 35.7159 37.4127 34.1266V27.5478C37.4127 25.9585 36.124 24.6698 34.5347 24.6698H15.6233C14.034 24.6698 12.7453 23.3811 12.7453 21.7917V19.0418L12.743 19.0395Z" fill="white"/>
</g>
<path d="M44.9963 15.5591V7.71508H45.8729V8.63724H46.0323C46.3283 8.07939 46.9203 7.5557 48.0815 7.5557C49.5274 7.5557 50.7114 8.63724 50.7114 10.4246V10.5726C50.7114 12.3486 49.5387 13.4415 48.0815 13.4415C46.9203 13.4415 46.3283 12.9179 46.055 12.4055H45.8957V15.5591H44.9963ZM47.8424 12.6446C48.9923 12.6446 49.7892 11.8705 49.7892 10.5499V10.4474C49.7892 9.12677 48.9809 8.35262 47.8424 8.35262C46.6926 8.35262 45.8843 9.12677 45.8843 10.4474V10.5499C45.8843 11.8705 46.6926 12.6446 47.8424 12.6446Z" fill="white"/>
<path d="M54.4404 13.4415C52.7555 13.4415 51.5943 12.3145 51.5943 10.5726V10.4246C51.5943 8.68277 52.7555 7.5557 54.4404 7.5557C56.1254 7.5557 57.2866 8.68277 57.2866 10.4246V10.5726C57.2866 12.3145 56.1254 13.4415 54.4404 13.4415ZM54.4404 12.6332C55.6131 12.6332 56.3872 11.8249 56.3872 10.5499V10.4474C56.3872 9.17231 55.6131 8.364 54.4404 8.364C53.2564 8.364 52.4937 9.17231 52.4937 10.4474V10.5499C52.4937 11.8249 53.2678 12.6332 54.4404 12.6332Z" fill="white"/>
<path d="M59.1127 13.2822L57.997 7.71508H58.9077L59.8299 12.6788H59.9893L61.2074 7.71508H62.6988L63.917 12.6788H64.0764L64.9985 7.71508H65.9093L64.7936 13.2822H63.2567L62.0271 8.31847H61.8791L60.6496 13.2822H59.1127Z" fill="white"/>
<path d="M69.4387 13.4415C67.7424 13.4415 66.6153 12.2917 66.6153 10.5726V10.436C66.6153 8.71693 67.7538 7.5557 69.3818 7.5557C70.9642 7.5557 72.0572 8.62585 72.0572 10.3222V10.732H67.5261C67.5602 11.9274 68.3572 12.6446 69.4615 12.6446C70.4178 12.6446 70.8845 12.1437 71.1578 11.5289L71.9319 11.9046C71.5904 12.6105 70.9301 13.4415 69.4387 13.4415ZM67.5375 9.992H71.1464C71.0781 8.956 70.3836 8.35262 69.3818 8.35262C68.3685 8.35262 67.6741 8.956 67.5375 9.992Z" fill="white"/>
<path d="M73.1705 13.2822V7.71508H74.0471V8.39816H74.2065C74.4001 7.90862 74.7985 7.69231 75.4702 7.69231H76.1305V8.512H75.4133C74.605 8.512 74.0699 8.956 74.0699 9.88954V13.2822H73.1705Z" fill="white"/>
<path d="M79.3567 13.4415C77.6603 13.4415 76.5333 12.2917 76.5333 10.5726V10.436C76.5333 8.71693 77.6717 7.5557 79.2997 7.5557C80.8822 7.5557 81.9751 8.62585 81.9751 10.3222V10.732H77.444C77.4782 11.9274 78.2751 12.6446 79.3794 12.6446C80.3357 12.6446 80.8025 12.1437 81.0757 11.5289L81.8499 11.9046C81.5083 12.6105 80.848 13.4415 79.3567 13.4415ZM77.4554 9.992H81.0643C80.996 8.956 80.3016 8.35262 79.2997 8.35262C78.2865 8.35262 77.592 8.956 77.4554 9.992Z" fill="white"/>
<path d="M85.4451 13.4415C83.9993 13.4415 82.8153 12.36 82.8153 10.5726V10.4246C82.8153 8.64862 83.9879 7.5557 85.4451 7.5557C86.6063 7.5557 87.187 8.07939 87.4716 8.5917H87.631V5.31293H88.5303V13.2822H87.6537V12.36H87.4943C87.187 12.9179 86.6063 13.4415 85.4451 13.4415ZM85.6842 12.6446C86.8226 12.6446 87.631 11.8705 87.631 10.5499V10.4474C87.631 9.12677 86.834 8.35262 85.6842 8.35262C84.5343 8.35262 83.726 9.12677 83.726 10.4474V10.5499C83.726 11.8705 84.5343 12.6446 85.6842 12.6446Z" fill="white"/>
<path d="M95.5136 13.4415C94.3523 13.4415 93.7603 12.9179 93.4643 12.36H93.3049V13.2822H92.4283V5.31293H93.3277V8.5917H93.4871C93.7603 8.07939 94.3523 7.5557 95.5136 7.5557C96.9708 7.5557 98.1434 8.64862 98.1434 10.4246V10.5726C98.1434 12.36 96.9594 13.4415 95.5136 13.4415ZM95.2745 12.6446C96.4129 12.6446 97.2212 11.8705 97.2212 10.5499V10.4474C97.2212 9.12677 96.4243 8.35262 95.2745 8.35262C94.1246 8.35262 93.3163 9.12677 93.3163 10.4474V10.5499C93.3163 11.8705 94.1246 12.6446 95.2745 12.6446Z" fill="white"/>
<path d="M99.9713 15.5591V14.7622H103.159C103.398 14.7622 103.489 14.6483 103.489 14.4206V12.3942H103.33C103.091 12.8837 102.567 13.3846 101.428 13.3846C100.199 13.3846 99.2313 12.5877 99.2313 11.0963V7.71508H100.131V11.028C100.131 12.1323 100.723 12.5991 101.668 12.5991C102.726 12.5991 103.489 11.9046 103.489 10.5157V7.71508H104.388V14.58C104.388 15.1834 104.024 15.5591 103.387 15.5591H99.9713Z" fill="white"/>
<path d="M49.311 30.5982C46.869 30.5982 45.0589 28.9588 45.0589 26.2777V26.0899C45.0589 23.4088 46.869 21.7694 49.311 21.7694C51.7189 21.7694 53.0338 23.2722 53.307 24.9628L51.9921 25.236C51.8214 24.0065 50.9846 22.9819 49.3281 22.9819C47.6717 22.9819 46.408 24.1602 46.408 26.1069V26.2606C46.408 28.2074 47.6717 29.3857 49.3281 29.3857C50.9846 29.3857 51.8384 28.4123 52.0434 27.1315L53.3754 27.4219C53.0167 29.0954 51.7189 30.5982 49.311 30.5982Z" fill="white"/>
<path d="M58.8512 30.5982C56.3238 30.5982 54.5819 28.9075 54.5819 26.2948V26.0728C54.5819 23.46 56.3238 21.7694 58.8512 21.7694C61.3786 21.7694 63.1204 23.46 63.1204 26.0728V26.2948C63.1204 28.9075 61.3786 30.5982 58.8512 30.5982ZM58.8512 29.3857C60.6101 29.3857 61.7713 28.1732 61.7713 26.2606V26.1069C61.7713 24.1943 60.6101 22.9819 58.8512 22.9819C57.0752 22.9819 55.931 24.1943 55.931 26.1069V26.2606C55.931 28.1732 57.0923 29.3857 58.8512 29.3857Z" fill="white"/>
<path d="M64.8651 30.3591V22.0085H66.18V23.4258H66.4191C66.7777 22.6232 67.5803 21.8548 69.288 21.8548C71.1323 21.8548 72.6009 23.0672 72.6009 25.3043V30.3591H71.2518V25.4068C71.2518 23.7503 70.3467 23.0331 68.9464 23.0331C67.3412 23.0331 66.2141 24.0919 66.2141 26.1582V30.3591H64.8651Z" fill="white"/>
<path d="M78.0191 30.5982C75.9357 30.5982 74.3988 29.676 74.1085 27.6097L75.3892 27.3194C75.6283 28.9588 76.7554 29.4711 78.0191 29.4711C79.2657 29.4711 80.0512 28.9417 80.0512 28.0879C80.0512 27.234 79.3169 26.9608 78.1045 26.7388L77.4043 26.6192C75.7649 26.3289 74.4842 25.6629 74.4842 24.1602C74.4842 22.6574 75.7479 21.7694 77.6605 21.7694C79.5389 21.7694 80.7514 22.6574 81.0929 24.2114L79.8292 24.5359C79.6243 23.3405 78.7876 22.8965 77.6605 22.8965C76.5163 22.8965 75.8162 23.3405 75.8162 24.1431C75.8162 24.9457 76.4822 25.2531 77.5409 25.4409L78.2411 25.5605C80 25.8678 81.3832 26.4143 81.3832 28.0366C81.3832 29.676 80.0683 30.5982 78.0191 30.5982Z" fill="white"/>
<path d="M86.8025 30.5982C84.258 30.5982 82.5674 28.8734 82.5674 26.2948V26.0899C82.5674 23.5112 84.2751 21.7694 86.7171 21.7694C89.0908 21.7694 90.7302 23.3746 90.7302 25.9191V26.5338H83.9336C83.9848 28.3269 85.1802 29.4028 86.8367 29.4028C88.2711 29.4028 88.9713 28.6514 89.3811 27.7292L90.5423 28.2928C90.03 29.3515 89.0396 30.5982 86.8025 30.5982ZM83.9507 25.4239H89.364C89.2616 23.8699 88.2199 22.9648 86.7171 22.9648C85.1973 22.9648 84.1556 23.8699 83.9507 25.4239Z" fill="white"/>
<path d="M92.4003 30.3591V22.0085H93.7152V23.4258H93.9543C94.3129 22.6232 95.1155 21.8548 96.8232 21.8548C98.6675 21.8548 100.136 23.0672 100.136 25.3043V30.3591H98.787V25.4068C98.787 23.7503 97.882 23.0331 96.4817 23.0331C94.8764 23.0331 93.7493 24.0919 93.7493 26.1582V30.3591H92.4003Z" fill="white"/>
<path d="M102.19 30.3591V22.0085H103.505V23.4258H103.744C104.103 22.6232 104.905 21.8548 106.613 21.8548C108.457 21.8548 109.926 23.0672 109.926 25.3043V30.3591H108.577V25.4068C108.577 23.7503 107.672 23.0331 106.272 23.0331C104.666 23.0331 103.539 24.0919 103.539 26.1582V30.3591H102.19Z" fill="white"/>
<path d="M114.542 30.5982C112.766 30.5982 111.416 29.6589 111.416 27.9854C111.416 26.2948 112.766 25.458 114.559 25.458H117.376V24.8432C117.376 23.6649 116.693 22.9306 115.31 22.9306C113.961 22.9306 113.227 23.6479 112.97 24.7237L111.707 24.3139C112.1 22.9135 113.227 21.7694 115.327 21.7694C117.445 21.7694 118.708 22.9306 118.708 24.9286V28.7026C118.708 29.0442 118.879 29.2149 119.186 29.2149H119.955V30.3591H118.777C118.025 30.3591 117.53 29.9151 117.53 29.1978V29.1125H117.325C116.966 29.7785 116.266 30.5982 114.542 30.5982ZM114.695 29.4369C116.3 29.4369 117.376 28.4465 117.376 26.7388V26.5509H114.61C113.534 26.5509 112.766 27.012 112.766 27.9512C112.766 28.8905 113.534 29.4369 114.695 29.4369Z" fill="white"/>
<path d="M128.665 30.5982C126.223 30.5982 124.413 28.9588 124.413 26.2777V26.0899C124.413 23.4088 126.223 21.7694 128.665 21.7694C131.073 21.7694 132.387 23.2722 132.661 24.9628L131.346 25.236C131.175 24.0065 130.338 22.9819 128.682 22.9819C127.025 22.9819 125.762 24.1602 125.762 26.1069V26.2606C125.762 28.2074 127.025 29.3857 128.682 29.3857C130.338 29.3857 131.192 28.4123 131.397 27.1315L132.729 27.4219C132.37 29.0954 131.073 30.5982 128.665 30.5982Z" fill="white"/>
<path d="M138.205 30.5982C135.677 30.5982 133.936 28.9075 133.936 26.2948V26.0728C133.936 23.46 135.677 21.7694 138.205 21.7694C140.732 21.7694 142.474 23.46 142.474 26.0728V26.2948C142.474 28.9075 140.732 30.5982 138.205 30.5982ZM138.205 29.3857C139.964 29.3857 141.125 28.1732 141.125 26.2606V26.1069C141.125 24.1943 139.964 22.9819 138.205 22.9819C136.429 22.9819 135.285 24.1943 135.285 26.1069V26.2606C135.285 28.1732 136.446 29.3857 138.205 29.3857Z" fill="white"/>
<path d="M143.809 26.2265V25.9874C143.809 23.3746 145.568 21.7694 147.754 21.7694C149.513 21.7694 150.383 22.572 150.827 23.3917H151.067V22.0085H152.347V32.3059C152.347 33.2109 151.835 33.7745 150.879 33.7745H145.209V32.5791H150.52C150.862 32.5791 151.032 32.4083 151.032 32.0668V28.8905H150.793C150.383 29.6419 149.513 30.4445 147.754 30.4445C145.568 30.4445 143.809 28.8392 143.809 26.2265ZM148.112 29.2491C149.82 29.2491 151.032 28.1049 151.032 26.1752V26.0386C151.032 24.1089 149.837 22.9648 148.112 22.9648C146.387 22.9648 145.175 24.1089 145.175 26.0386V26.1752C145.175 28.1049 146.387 29.2491 148.112 29.2491Z" fill="white"/>
<path d="M158.317 30.5982C155.773 30.5982 154.082 28.8734 154.082 26.2948V26.0899C154.082 23.5112 155.79 21.7694 158.232 21.7694C160.606 21.7694 162.245 23.3746 162.245 25.9191V26.5338H155.449C155.5 28.3269 156.695 29.4028 158.352 29.4028C159.786 29.4028 160.486 28.6514 160.896 27.7292L162.057 28.2928C161.545 29.3515 160.555 30.5982 158.317 30.5982ZM155.466 25.4239H160.879C160.777 23.8699 159.735 22.9648 158.232 22.9648C156.712 22.9648 155.671 23.8699 155.466 25.4239Z" fill="white"/>
<path d="M163.915 30.3591V22.0085H165.23V23.4258H165.469C165.828 22.6232 166.63 21.8548 168.338 21.8548C170.182 21.8548 171.651 23.0672 171.651 25.3043V30.3591H170.302V25.4068C170.302 23.7503 169.397 23.0331 167.997 23.0331C166.391 23.0331 165.264 24.0919 165.264 26.1582V30.3591H163.915Z" fill="white"/>
<path d="M176.545 30.3591C175.589 30.3591 175.06 29.7955 175.06 28.8905V23.1868H172.549V22.0085H175.06V19.0371H176.409V22.0085H179.141V23.1868H176.409V28.6685C176.409 29.01 176.545 29.1808 176.904 29.1808H178.765V30.3591H176.545Z" fill="white"/>
<path d="M181.006 17.53H180.278V17.2847H182.002V17.53H181.277V19.5442H181.006V17.53Z" fill="white"/>
<path d="M182.284 17.2847H182.8L183.401 19.3742H183.444L184.044 17.2847H184.561V19.5442H184.3V17.4633H184.255L183.659 19.5442H183.192L182.596 17.4633H182.551V19.5442H182.288V17.2847H182.284Z" fill="white"/>
</g>
<defs>
<clipPath id="clip0_0_38">
<rect width="189.744" height="37" fill="white" transform="translate(0.410156)"/>
</clipPath>
<clipPath id="clip1_0_38">
<rect width="37" height="37" fill="white" transform="translate(0.410278)"/>
</clipPath>
</defs>
</svg>
