<svg width="16" height="16" viewBox="0 0 16 16" fill="none" xmlns="http://www.w3.org/2000/svg">
<path d="M12.0207 11.0779L14.8758 13.933L13.933 14.8758L11.0779 12.0207C10.0513 12.842 8.74934 13.3333 7.33334 13.3333C4.02134 13.3333 1.33334 10.6453 1.33334 7.33333C1.33334 4.02133 4.02134 1.33333 7.33334 1.33333C10.6453 1.33333 13.3333 4.02133 13.3333 7.33333C13.3333 8.74933 12.842 10.0513 12.0207 11.0779ZM10.6831 10.5832C11.4983 9.74306 12 8.59706 12 7.33333C12 4.75499 9.91167 2.66666 7.33334 2.66666C4.755 2.66666 2.66667 4.75499 2.66667 7.33333C2.66667 9.91166 4.755 12 7.33334 12C8.59707 12 9.74307 11.4983 10.5832 10.6831L10.6831 10.5832Z" fill="white" fill-opacity="0.3"/>
</svg>
